<svg xmlns="http://www.w3.org/2000/svg" width="646.849" height="649" viewBox="0 0 646.849 649">
  <path id="패스_1" data-name="패스 1" d="M821.43,539.151c-9.293,16.37-15.7,33.488-27.062,46.152-13.3,14.808-31.173,25.443-46.542,38.5-6.393,5.435-11.194,12.688-17.134,18.707-3.44,3.482-6.871,6.973-10.473,10.639-17.193,17.5-34.543,35.208-52.838,51.867-3.575,3.251-16.081,2.324-20.006-1.379-21.334-20.157-41.225-41.844-61.726-62.892-5.586-5.739-10.819-12.252-17.456-16.454-32.936-20.842-59.162-46.778-71.678-85.683-36.112-5.989-57.738-33.3-78.288-62.632-6.231-8.883-15.487-15.646-23.319-23.421-19.86-19.729-40.62-38.686-58.854-59.816-4.158-4.823-1.845-18.185,1.53-25.834,4.437-10.058,11.129-20.849,19.888-26.976,38.624-27.018,65.4-65.413,98.245-97.9,11.327-11.209,28.847-16.17,46.3-25.454-1.377-17.48,29.421-64.189,57.6-73.647,16.117-5.411,22.055-16.835,31.169-28.86a287.658,287.658,0,0,1,54.122-53.776c6.947-5.322,22.232.215,33.7.9.634.035,1.288.985,1.805,1.614,38.216,46.915,85.991,84.288,127.3,128.063,6.513,6.9,7.542,18.982,11.4,29.481,36.985,5.834,55.614,36.418,77.536,63.207,7.73,9.446,16.871,17.806,25.814,26.184,18.385,17.228,38.945,32.617,54.656,51.971,5.725,7.047,3.841,24.949-.874,34.91-12.786,27.035-33.94,46.72-62.641,57.758-4.461,1.721-6.717,8.65-10.537,12.653-22.013,23.055-43.733,46.436-66.706,68.507C831.861,539.867,822.306,538.965,821.43,539.151ZM585.464,161.021q-4.693-3.878-9.4-7.752c-11.921,9.058-25.621,16.576-35.238,27.643-8.384,9.644-19.9,26.86-16.4,34.453,7.979,17.321,21.651,35.273,37.817,44.882,31.963,18.99,68.138,12.522,104.015,7.854-.395-9.994-.71-17.99-1.071-27.177-5.067-.368-9-.7-12.93-.927-21.095-1.213-42.5-.683-63.169-4.3-10.775-1.883-21.554-9.8-29.417-17.844-1.887-1.927,8.335-14.995,12.13-23.334C576.8,183.553,580.952,172.2,585.464,161.021ZM900.5,432.154c2.415,1.836,4.825,3.657,7.24,5.49,9.566-4.688,20.922-7.44,28.406-14.38,39.937-37,38.271-60.251-9.116-87.552-22.638-13.045-53.964-12.788-81.632-14.828-28.57-2.111-31.781,5.071-18.888,29.863,24.013,1.63,47.913,1.107,70.795,5.677,11.968,2.393,22.141,13.742,33.127,21.048-6.034,8.8-12.781,17.2-17.893,26.5C907.645,412.882,904.445,422.725,900.5,432.154Zm-233.655,144.9c-31.8-1.949-60.24-2.841-88.43-6.014-7.264-.825-17.1-7.537-19.527-13.917-2.1-5.521,4.051-14.693,7.61-21.72,6.249-12.331,13.309-24.252,20.026-36.347q-5.588-4.6-11.178-9.189c-13.937,12.045-28.41,23.541-41.688,36.278-19.556,18.758-17.037,24.618-.286,46.656,36.265,47.711,85.51,31.142,131.294,33.679C665.524,594.9,666.129,586.749,666.845,577.056ZM715.836,128.7c-3.076-4.681-5.714-7.783-7.344-11.342C698.387,95.318,680.844,75.9,658.264,77.968c-16.043,1.472-33.335,19.332-44.85,33.983-25.148,31.994-10,70.773-14.1,105.716,25.878,6.95,35.222-2.861,31.978-27.33-1.18-8.888.647-18.15-.282-27.1-2.71-26.1,9.741-42.89,30.209-54.829C678.853,117.286,685.058,149.184,715.836,128.7Zm20.727,475.035c31.129-7.424,56.018-30.441,58.568-51.791,1.8-15.046-22.962-48-46.139-52.822-31.375-6.51-63.925-7.377-97.329-10.812-.069,14.105-.115,23.92-.16,33.047,29.621,1.761,58.138,2.373,86.308,5.83,7.91.967,18.148,8.932,21.081,16.205,2.3,5.719-3.3,20.682-8.313,22.254C728.473,572.593,737.082,587.8,736.563,603.733ZM415.42,329.259q-5.555-4.361-11.114-8.706c-16.857,16.857-34.231,33.255-50.1,51-2.881,3.213-1.747,13.309,1.189,17.873,15.6,24.237,34.114,46.593,65.207,49.226,25.051,2.111,50.423.452,78.574.472-1.743-11.977-3.142-21.614-4.324-29.754-28.585-1.894-54.681-2.5-80.392-5.969-8.67-1.169-18.549-8.092-23.545-15.369-2.359-3.437,5.581-13.853,8.7-21.166C404.949,354.351,410.16,341.79,415.42,329.259Zm470.9-30.681C875.993,285.051,867.243,271,855.929,259.45c-12.839-13.11-29.109-23.042-46.718-8.446-19.427,16.1-38.138,33.6-38.735,61.934-.5,23.913-1.078,47.826-1.517,67.282,13.21,3.009,22.5,5.125,27.018,6.151,17.478-37.542-15.028-85.011,32.144-111.521C846.268,287.379,854.419,314.306,886.317,298.578ZM429.159,463.7c15.205,16.673,27.636,32.816,42.8,45.746,6.482,5.526,22.159,9.278,27.654,5.377,22.337-15.875,44.819-33.555,47.421-64.273,2.158-25.394,2.994-50.9,4.457-77.108-14.919-.381-22.98-.588-31.858-.809-1.339,23.241-.747,46.148-4.648,68.265-2.339,13.223-10.473,26.126-18.724,37.14-2.328,3.1-19.7,1.069-20.915-2.111C466.834,453.47,451.817,454.887,429.159,463.7ZM457.3,387.2c2.5-7.2,5.517-12.385,5.905-17.758.827-11.407-.191-22.938.428-34.369.61-11.245-.049-23.366,3.983-33.455,9.375-23.445,30.5-30.113,39.537-12.87,10.185,19.432,24.033,13.571,44.356,13.586-13.041-17.875-21.767-34.311-34.748-46.035-8.429-7.617-28.1-15.3-34.032-10.987-23.844,17.347-49.152,36.072-50.787,70.249-1.124,23.543-1.707,47.108-2.572,71.713C440.757,387.245,448.079,387.228,457.3,387.2Zm193.849-205.67c37.97,10.3,83.561-11.755,112.532,28.843-12.875,18.46-39.4,29.009-20.94,63.043,17.272-17.27,33.952-32.089,47.933-49.124,3.945-4.8,2.373-17.17-.769-24.25-18.676-42.081-86.714-61.958-137.488-41.056C652,166.341,651.587,173.692,651.146,181.533ZM605.894,628.588q-3.492,4.078-6.985,8.149c16.21,16.212,32.038,32.845,48.971,48.268,3.246,2.96,12.784,3.668,16.065,1.118,14.254-11.1,34.825-21.552,39.2-36.346,9.865-33.409,11.509-69.247,16.119-101.472-15.163-2.131-25.3-3.557-37.448-5.266.486,28.213,2.732,53.76.483,78.9-.918,10.289-10.2,21.188-18.489,28.727-2.956,2.688-19.485-2.091-20.769-6.251C636.193,622.246,620.485,627.841,605.894,628.588Zm280.592-253.51c-29.036-9.415-33.495,4.384-32.49,27.16a233.582,233.582,0,0,1-4.085,55.823c-1.86,9.24-9.424,20.294-17.482,24.208-4.772,2.319-17.274-6.056-23.23-12.469-12.254-13.19-23.494-18.1-39.373-3.537,14.868,14.868,28.262,29.393,42.994,42.414,5.519,4.881,17.372,10.83,20.782,8.424,14.094-9.939,28.211-21.3,38.362-35.063C896,449.452,882.519,410.948,886.486,375.078Zm-172.723-2.566c-11.1.386-19.864.7-31.947,1.124.526,23.445,1.266,45.465,1.455,67.486.262,31.342.084,31.342,28.687,27.585C712.545,437.354,713.126,406.3,713.763,372.513ZM598.237,288.606c4.04,33.14,7.959,65.271,11.877,97.411q-4.637.489-9.28.987c9.815.082,19.627.169,25.676.228.149-32.989.3-64.744.452-97.7C620.762,289.331,612.733,289.074,598.237,288.606Zm55.009,70.979c27.224-2.6,53.689-4.258,79.8-8.242,6.189-.947,11.192-9.677,16.735-14.826-6.089-5.406-12.085-15.309-18.294-15.443-26.355-.576-52.771,1.745-79.918,3.045C652.039,334,652.414,341.969,653.246,359.585Zm11.859,47.64c-27.053.135-52.978.654-78.884.222-11.393-.193-23.47.514-20.39,14.7,1.49,6.87,13.369,15.913,20.884,16.241,26.2,1.162,52.554-1.064,79.645-2.031C665.9,425.57,665.553,417.623,665.1,407.225Zm-83.927-52.869c1.781-34.24,1.763-34.788-27.419-33.85-22.767.734-45.487,3.045-69.473,4.741.308,8.021.641,16.633,1.333,34.657Zm157.66,86.614c30.138-.463,62.247-.96,95.611-1.475-.971-14.782-1.488-22.676-2.233-33.983-25.88.732-50.4,2.574-74.828,1.77C737.436,406.617,732.7,415.21,738.838,440.97ZM710.095,303.179c.3-33.286.6-64.812.9-97.458-6.475-.215-14.456-.472-32.284-1.051.319,32.752.63,64.409.945,96.961C696.622,302.5,704.547,302.9,710.095,303.179ZM602.384,462.387c-.974,27.2-2.3,53.009-2.632,78.831-.135,10.194,3.628,20.483,16.52,16.1,6.047-2.064,13.591-10.094,14.141-16.01,1.8-19.385-.2-39.1.958-58.581C632.594,462.176,624.055,456.306,602.384,462.387Z" transform="translate(-333.821 -58)" fill="#e8e8e8" fill-rule="evenodd"/>
</svg>
